<svg xmlns="http://www.w3.org/2000/svg" viewBox="0 0 24 24" fill="none">
  <defs><linearGradient id="g" x1="4" y1="20" x2="20" y2="4"><stop stop-color="#16a34a"/><stop offset="1" stop-color="#0ea5e9"/></linearGradient></defs>
  <rect x="2" y="2" width="20" height="20" rx="7" fill="url(#g)" opacity=".16"/>
  <path d="M7.4 15.4a4.4 4.4 0 0 1 1.3-8.6 5.2 5.2 0 0 1 9.7 2.5 3.3 3.3 0 0 1-.9 6.5H7.4Z" fill="#fff" stroke="#0284c7" stroke-width="1.35" stroke-linejoin="round"/>
  <path d="M7.8 12.4c0-1.1.7-1.8 1.8-1.8.5 0 .9.1 1.2.4M13 13.7h2.4M13 13.7l1.8-1.4c.4-.3.6-.6.6-1 0-.5-.4-.8-1-.8-.6 0-1 .3-1.2.8" stroke="#16a34a" stroke-width="1.05" stroke-linecap="round" stroke-linejoin="round"/>
</svg>
